<svg id="Layer_1" data-name="Layer 1" xmlns="http://www.w3.org/2000/svg" viewBox="0 0 48 48"><path d="M41,9H32V7a3,3,0,0,0-3-3H19a3,3,0,0,0-3,3V9H7a5.006,5.006,0,0,0-5,5v4.49a3,3,0,0,0,1,2.227V39a5.006,5.006,0,0,0,5,5H40a5.006,5.006,0,0,0,5-5V20.716a3,3,0,0,0,1-2.226V14A5.006,5.006,0,0,0,41,9ZM18,7a1,1,0,0,1,1-1H29a1,1,0,0,1,1,1V9H18ZM4,14a3,3,0,0,1,3-3H41a3,3,0,0,1,3,3v4.49a1,1,0,0,1-.726.959L28,23.824V23a3,3,0,0,0-3-3H23a3,3,0,0,0-3,3v.824L4.719,19.447A.993.993,0,0,1,4,18.49Zm22,9v4a1,1,0,0,1-1,1H23a1,1,0,0,1-1-1V23a1,1,0,0,1,1-1h2A1,1,0,0,1,26,23ZM40,42H8a3,3,0,0,1-3-3V21.608l15,4.3V27a3,3,0,0,0,3,3h2a3,3,0,0,0,3-3V25.9l15-4.3V39A3,3,0,0,1,40,42Z" id="id_101" style="fill: rgb(181, 182, 198);"></path></svg>