<svg xmlns="http://www.w3.org/2000/svg" xml:space="preserve" width="1.70666in" height="1.70666in" version="1.1" style="shape-rendering:geometricPrecision; text-rendering:geometricPrecision; image-rendering:optimizeQuality; fill-rule:evenodd; clip-rule:evenodd" viewBox="0 0 1707 1707" xmlns:xlink="http://www.w3.org/1999/xlink">
 <defs>
  <style type="text/css">
   
    .fil0 {fill:black}
   
  </style>
 </defs>
 <g id="Layer_x0020_1">
  <metadata id="CorelCorpID_0Corel-Layer"></metadata>
  <g id="_533786352">
   <g>
    <g>
     <path class="fil0" d="M1410 1592c-164,0 -297,-133 -297,-297 0,-164 133,-299 297,-299 164,0 297,134 297,299 0,164 -133,297 -297,297zm0 -547c-137,0 -248,112 -248,250 0,137 111,248 248,248 137,0 249,-111 249,-248 0,-138 -112,-250 -249,-250z" id="id_121" style="fill: rgb(181, 182, 198);"></path>
    </g>
    <g>
     <path class="fil0" d="M1410 1592l-1385 0c-14,0 -25,-11 -25,-25l0 -1097c0,-14 11,-25 25,-25l1564 0c14,0 25,11 25,25l0 617c0,13 -11,25 -25,25 -14,0 -25,-12 -25,-25l0 -590 -1516 0 0 1048 1362 0c14,0 25,11 25,25 0,14 -11,22 -25,22z" id="id_122" style="fill: rgb(181, 182, 198);"></path>
    </g>
    <g>
     <path class="fil0" d="M1589 497l-1564 0c-14,0 -25,-12 -25,-25l0 -218c0,-14 11,-25 25,-25l312 0c14,0 25,11 25,25 0,13 -11,25 -25,25l-289 0 0 169 1516 0 0 -169 -287 0c-14,0 -25,-12 -25,-25 0,-14 11,-25 25,-25l312 0c14,0 25,11 25,25l0 218c-1,13 -11,25 -25,25zm-429 -218l-296 0c-13,0 -25,-12 -25,-25 0,-14 12,-25 25,-25l296 0c14,0 25,11 25,25 0,13 -11,25 -25,25zm-412 0l-296 0c-14,0 -25,-12 -25,-25 0,-14 11,-25 25,-25l296 0c14,0 25,11 25,25 0,13 -11,25 -25,25z" id="id_123" style="fill: rgb(181, 182, 198);"></path>
    </g>
    <g>
     <g>
      <path class="fil0" d="M351 838l-192 0c-14,0 -25,-11 -25,-25l0 -205c0,-14 11,-25 25,-25l190 0c14,0 25,11 25,25l0 206c0,14 -9,24 -23,24zm-167 -49l142 0 0 -158 -142 0 0 158z" id="id_124" style="fill: rgb(181, 182, 198);"></path>
     </g>
     <g>
      <path class="fil0" d="M719 838l-192 0c-14,0 -25,-11 -25,-25l0 -205c0,-14 11,-25 25,-25l190 0c14,0 25,11 25,25l0 206c0,14 -9,24 -23,24zm-167 -49l142 0 0 -158 -142 0 0 158z" id="id_125" style="fill: rgb(181, 182, 198);"></path>
     </g>
     <g>
      <path class="fil0" d="M1085 838l-190 0c-14,0 -25,-11 -25,-25l0 -205c0,-14 11,-25 25,-25l190 0c14,0 25,11 25,25l0 206c0,14 -11,24 -25,24zm-166 -49l141 0 0 -158 -141 0 0 158z" id="id_126" style="fill: rgb(181, 182, 198);"></path>
     </g>
     <g>
      <path class="fil0" d="M1453 838l-192 0c-13,0 -25,-11 -25,-25l0 -205c0,-14 12,-25 25,-25l191 0c14,0 25,11 25,25l0 206c0,14 -10,24 -24,24zm-167 -49l142 0 0 -158 -142 0 0 158z" id="id_127" style="fill: rgb(181, 182, 198);"></path>
     </g>
    </g>
    <g>
     <path class="fil0" d="M351 1148l-192 0c-14,0 -25,-11 -25,-25l0 -207c0,-14 11,-25 25,-25l190 0c14,0 25,11 25,25l0 207c0,14 -9,25 -23,25zm-167 -49l142 0 0 -158 -142 0 0 158z" id="id_128" style="fill: rgb(181, 182, 198);"></path>
    </g>
    <g>
     <path class="fil0" d="M719 1148l-192 0c-14,0 -25,-11 -25,-25l0 -207c0,-14 11,-25 25,-25l190 0c14,0 25,11 25,25l0 207c0,14 -9,25 -23,25zm-167 -49l142 0 0 -158 -142 0 0 158z" id="id_129" style="fill: rgb(181, 182, 198);"></path>
    </g>
    <g>
     <path class="fil0" d="M1085 1148l-190 0c-14,0 -25,-11 -25,-25l0 -207c0,-14 11,-25 25,-25l190 0c14,0 25,11 25,25l0 207c0,14 -11,25 -25,25zm-166 -49l141 0 0 -158 -141 0 0 158z" id="id_130" style="fill: rgb(181, 182, 198);"></path>
    </g>
    <g>
     <path class="fil0" d="M351 1456l-192 0c-14,0 -25,-11 -25,-25l0 -207c0,-14 11,-25 25,-25l190 0c14,0 25,11 25,25l0 207c0,14 -9,25 -23,25zm-167 -49l142 0 0 -158 -142 0 0 158z" id="id_131" style="fill: rgb(181, 182, 198);"></path>
    </g>
    <g>
     <path class="fil0" d="M719 1456l-192 0c-14,0 -25,-11 -25,-25l0 -207c0,-14 11,-25 25,-25l190 0c14,0 25,11 25,25l0 207c0,14 -9,25 -23,25zm-167 -49l142 0 0 -158 -142 0 0 158z" id="id_132" style="fill: rgb(181, 182, 198);"></path>
    </g>
    <g>
     <path class="fil0" d="M1053 1456l-158 0c-14,0 -25,-11 -25,-25l0 -207c0,-14 11,-25 25,-25l158 0c14,0 25,11 25,25l0 207c0,14 -11,25 -25,25zm-134 -49l109 0 0 -158 -109 0 0 158z" id="id_133" style="fill: rgb(181, 182, 198);"></path>
    </g>
    <g>
     <g>
      <path class="fil0" d="M454 392l-117 0c-14,0 -25,-11 -25,-25l0 -227c0,-14 11,-25 25,-25l117 0c13,0 25,11 25,25l0 229c0,14 -12,23 -25,23zm-93 -48l68 0 0 -181 -68 0 0 181z" id="id_134" style="fill: rgb(181, 182, 198);"></path>
     </g>
     <g>
      <path class="fil0" d="M866 392l-117 0c-14,0 -25,-11 -25,-25l0 -227c0,-14 11,-25 25,-25l117 0c14,0 25,11 25,25l0 229c-2,14 -13,23 -25,23zm-93 -48l68 0 0 -181 -68 0 0 181z" id="id_135" style="fill: rgb(181, 182, 198);"></path>
     </g>
     <g>
      <path class="fil0" d="M1277 392l-117 0c-14,0 -25,-11 -25,-25l0 -227c0,-14 11,-25 25,-25l117 0c14,0 25,11 25,25l0 229c0,14 -11,23 -25,23zm-92 -48l68 0 0 -181 -68 0 0 181z" id="id_136" style="fill: rgb(181, 182, 198);"></path>
     </g>
    </g>
    <g>
     <path class="fil0" d="M1410 1320c-14,0 -25,-11 -25,-25l0 -158c0,-14 11,-25 25,-25 14,0 25,11 25,25l0 158c0,14 -11,25 -25,25z" id="id_137" style="fill: rgb(181, 182, 198);"></path>
    </g>
    <g>
     <path class="fil0" d="M1499 1370c-4,0 -8,-2 -13,-3l-88 -51c-12,-7 -16,-21 -9,-34 7,-11 21,-15 34,-8l88 51c11,7 16,21 9,34 -4,7 -13,11 -21,11z" id="id_138" style="fill: rgb(181, 182, 198);"></path>
    </g>
   </g>
  </g>
 </g>
</svg>