<svg xmlns="http://www.w3.org/2000/svg" xmlns:xlink="http://www.w3.org/1999/xlink" width="1706.719" height="1533.214" viewBox="0 0 1706.719 1533.214">
  <defs>
    <linearGradient id="linear-gradient" y1="0.5" x2="1" y2="0.5" gradientUnits="objectBoundingBox">
      <stop offset="0" stop-color="#b5b6c6" id="id_101"></stop>
      <stop offset="1" stop-color="#b5b6c6" id="id_102"></stop>
    </linearGradient>
    <linearGradient id="linear-gradient-3" x1="0" y1="0.5" x2="1" y2="0.5" xlink:href="#linear-gradient"></linearGradient>
    <linearGradient id="linear-gradient-4" x1="0" y1="0.5" x2="1" y2="0.5" xlink:href="#linear-gradient"></linearGradient>
    <linearGradient id="linear-gradient-5" x1="0" y1="0.5" x2="1" y2="0.5" xlink:href="#linear-gradient"></linearGradient>
    <linearGradient id="linear-gradient-18" x1="0" y1="0.5" x2="1" y2="0.5" xlink:href="#linear-gradient"></linearGradient>
  </defs>
  <g id="Layer_x0020_1" transform="translate(-646.631 -733.4)">
    <path id="Path_87" data-name="Path 87" d="M1718.34,2117.54a26.67,26.67,0,1,0,0-53.34h-1045a26.67,26.67,0,1,0,0,53.34Z" fill="url(#linear-gradient)"></path>
    <path id="Path_88" data-name="Path 88" d="M1988.03,2265.84a26.561,26.561,0,0,0-7.26-52.58h.01c.04,0,.04,0,0,.01v0c-.26.05-2.03.22-1.1.14.06,0,.05,0,0,.01v0l-1.02.14v-.01c.71-.13,1.41-.22,2.11-.29H700.01V908.87H1968.48v668.01a26.67,26.67,0,1,0,53.34,0V896.57c1.61-10.14-18.56-41.39-41.04-41.04H687.7a41.176,41.176,0,0,0-41.04,41.04v1329c-1.06,22.62,26.2,41.36,41.04,41.04H1980.78c.53,0,1.77-.09,3.69-.27,1.19-.11,2.38-.28,3.56-.49Z" fill="url(#linear-gradient)"></path>
    <path id="Path_89" data-name="Path 89" d="M1968.48,1854.38a26.67,26.67,0,0,0,53.34,0V1725.31a26.67,26.67,0,0,0-53.34,0v129.07Z" fill="url(#linear-gradient-3)"></path>
    <path id="Path_90" data-name="Path 90" d="M2049.16,1881.73a26.67,26.67,0,0,0,0,53.34h89.83a26.67,26.67,0,0,0,0-53.34Z" fill="url(#linear-gradient-4)"></path>
    <path id="Path_91" data-name="Path 91" d="M1663.62,1881.73a26.67,26.67,0,0,0,0,53.34h75.72a26.67,26.67,0,1,0,0-53.34Z" fill="url(#linear-gradient-5)"></path>
    <path id="Path_92" data-name="Path 92" d="M1741.87,2123.97a26.665,26.665,0,0,0,37.71,37.71l32.44-32.43a26.665,26.665,0,0,0-37.71-37.71Z" fill="url(#linear-gradient-5)"></path>
    <path id="Path_93" data-name="Path 93" d="M1968.48,2239.93a26.67,26.67,0,0,0,53.34,0v-75.72a26.67,26.67,0,0,0-53.34,0Z" fill="url(#linear-gradient-5)"></path>
    <path id="Path_94" data-name="Path 94" d="M2210.71,2161.68a26.665,26.665,0,0,0,37.71-37.71l-32.43-32.43a26.665,26.665,0,0,0-37.71,37.71Z" fill="url(#linear-gradient-5)"></path>
    <path id="Path_95" data-name="Path 95" d="M2326.67,1935.07a26.67,26.67,0,0,0,0-53.34h-75.72a26.67,26.67,0,0,0,0,53.34Z" fill="url(#linear-gradient-5)"></path>
    <path id="Path_96" data-name="Path 96" d="M2248.42,1692.83a26.665,26.665,0,0,0-37.71-37.71l-32.43,32.43a26.665,26.665,0,0,0,37.71,37.71Z" fill="url(#linear-gradient-5)"></path>
    <path id="Path_97" data-name="Path 97" d="M2021.81,1576.87a26.67,26.67,0,1,0-53.34,0v75.72a26.67,26.67,0,0,0,53.34,0Z" fill="url(#linear-gradient-5)"></path>
    <path id="Path_98" data-name="Path 98" d="M1779.57,1655.12a26.665,26.665,0,0,0-37.71,37.71l32.44,32.43a26.665,26.665,0,0,0,37.71-37.71Z" fill="url(#linear-gradient-5)"></path>
    <path id="Path_99" data-name="Path 99" d="M1995.15,1827.71a80.69,80.69,0,1,1-57.05,137.74h0c-.61-.61-1.19-1.24-1.73-1.9a80.638,80.638,0,0,1,58.79-135.84Zm19.34,61.35a27.395,27.395,0,0,0-39.75,37.67c.36.32.72.66,1.07,1.01h0a27.351,27.351,0,0,0,38.68-38.68Z" fill="url(#linear-gradient-4)"></path>
    <path id="Path_100" data-name="Path 100" d="M1995.15,1550.2a358.219,358.219,0,1,1-253.28,104.92,357.081,357.081,0,0,1,253.28-104.92Zm215.57,142.63a304.867,304.867,0,1,0,89.29,215.57,303.878,303.878,0,0,0-89.29-215.57Z" fill="url(#linear-gradient)"></path>
    <path id="Path_101" data-name="Path 101" d="M1995.15,1198.02a26.67,26.67,0,1,0,0-53.34H673.34a26.67,26.67,0,0,0,0,53.34Z" fill="url(#linear-gradient)"></path>
    <path id="Path_102" data-name="Path 102" d="M940.66,760.07a26.67,26.67,0,0,0-53.34,0v244.25a26.67,26.67,0,1,0,53.34,0Z" fill="url(#linear-gradient)"></path>
    <path id="Path_103" data-name="Path 103" d="M1229.8,760.07a26.67,26.67,0,0,0-53.34,0v244.25a26.67,26.67,0,0,0,53.34,0Z" fill="url(#linear-gradient)"></path>
    <path id="Path_104" data-name="Path 104" d="M1518.94,760.07a26.67,26.67,0,0,0-53.34,0v244.25a26.67,26.67,0,0,0,53.34,0Z" fill="url(#linear-gradient-18)"></path>
    <path id="Path_105" data-name="Path 105" d="M1808.09,760.07a26.67,26.67,0,0,0-53.34,0v244.25a26.67,26.67,0,0,0,53.34,0Z" fill="url(#linear-gradient-3)"></path>
    <path id="Path_106" data-name="Path 106" d="M825.54,1259.62h136.5a33.959,33.959,0,0,1,33.85,33.85v136.5a34.018,34.018,0,0,1-33.85,33.85H825.54a33.886,33.886,0,0,1-33.85-33.86v-136.5a33.959,33.959,0,0,1,33.85-33.85Zm117.01,53.34H845.03v97.52h97.52Z" fill="url(#linear-gradient)"></path>
    <path id="Path_107" data-name="Path 107" d="M1119.17,1259.62h136.5a33.959,33.959,0,0,1,33.85,33.85v136.5a34.018,34.018,0,0,1-33.85,33.85h-136.5a33.886,33.886,0,0,1-33.85-33.86v-136.5a33.959,33.959,0,0,1,33.85-33.85Zm117.01,53.34h-97.52v97.52h97.52Z" fill="url(#linear-gradient)"></path>
    <path id="Path_108" data-name="Path 108" d="M1412.81,1259.62H1549.3a34.018,34.018,0,0,1,33.85,33.85v136.5a33.959,33.959,0,0,1-33.85,33.85H1412.81a33.886,33.886,0,0,1-33.86-33.85v-136.5a33.966,33.966,0,0,1,33.85-33.85Zm117.01,53.34H1432.3v97.52h97.52Z" fill="url(#linear-gradient)"></path>
    <path id="Path_109" data-name="Path 109" d="M1688.54,1259.62h154.4a33.959,33.959,0,0,1,33.85,33.85v136.5a33.886,33.886,0,0,1-33.85,33.86h-136.5a34.018,34.018,0,0,1-33.85-33.85v-136.5c-2.6-8.94,3.32-34.23,15.94-33.85Zm134.91,53.34h-97.52v97.52h97.52Z" fill="url(#linear-gradient)"></path>
    <path id="Path_110" data-name="Path 110" d="M825.54,1529.01h136.5c18.2,0,33.85,15.31,33.85,33.85v136.5a33.886,33.886,0,0,1-33.86,33.85H825.53a33.728,33.728,0,0,1-23.83-9.92l-.07.03a27.169,27.169,0,0,1-2.69-3.13,33.571,33.571,0,0,1-7.26-20.83v-136.5A33.886,33.886,0,0,1,825.53,1529Zm117.01,53.34H845.03v97.52h97.52Z" fill="url(#linear-gradient)"></path>
    <path id="Path_111" data-name="Path 111" d="M1119.17,1529.01h136.5c18.2,0,33.85,15.31,33.85,33.85v136.5a33.886,33.886,0,0,1-33.86,33.85h-136.5a33.959,33.959,0,0,1-33.85-33.85v-136.5a33.886,33.886,0,0,1,33.85-33.86Zm117.01,53.34h-97.52v97.52h97.52Z" fill="url(#linear-gradient)"></path>
    <path id="Path_112" data-name="Path 112" d="M1412.81,1529.01H1549.3a33.765,33.765,0,0,1,23.93,9.93h0a27.416,27.416,0,0,1,2.78,3.26,33.577,33.577,0,0,1,7.15,20.67v136.5a33.966,33.966,0,0,1-33.85,33.85H1412.82a33.886,33.886,0,0,1-33.86-33.85v-136.5a33.886,33.886,0,0,1,33.86-33.85Zm117.01,53.34H1432.3v97.52h97.52Z" fill="url(#linear-gradient)"></path>
    <path id="Path_113" data-name="Path 113" d="M825.54,1798.4h136.5c18.2,0,33.85,15.31,33.85,33.85v136.5a33.886,33.886,0,0,1-33.86,33.85H825.53a33.959,33.959,0,0,1-33.85-33.85v-136.5a33.886,33.886,0,0,1,33.85-33.86Zm117.01,53.34H845.03v97.52h97.52Z" fill="url(#linear-gradient)"></path>
    <path id="Path_114" data-name="Path 114" d="M1119.17,1798.4h136.5a34.018,34.018,0,0,1,33.85,33.85v136.5a33.886,33.886,0,0,1-33.86,33.85h-136.5a33.959,33.959,0,0,1-33.85-33.85v-136.5a33.886,33.886,0,0,1,33.85-33.86Zm117.01,53.34h-97.52v97.52h97.52Z" fill="url(#linear-gradient)"></path>
  </g>
</svg>