<svg xmlns="http://www.w3.org/2000/svg" xml:space="preserve" width="512px" height="512px" version="1.1" style="shape-rendering:geometricPrecision; text-rendering:geometricPrecision; image-rendering:optimizeQuality; fill-rule:evenodd; clip-rule:evenodd" viewBox="0 0 512 512" xmlns:xlink="http://www.w3.org/1999/xlink">
 <defs>
  <style type="text/css">
   
    .fil0 {fill:black}
   
  </style>
 </defs>
 <g id="Layer_x0020_1">
  <metadata id="CorelCorpID_0Corel-Layer"></metadata>
  <path class="fil0" d="M375 414l-238 0c-16,0 -30,-14 -30,-30l0 -242c0,-17 13,-30 30,-30l238 0c17,0 30,13 30,30l0 242c0,16 -14,30 -30,30zm-34 -102l-69 0c-4,0 -7,-3 -7,-7 0,-4 3,-7 7,-7l69 0c4,0 7,3 7,7 0,4 -3,7 -7,7zm0 33l-109 0c-4,0 -7,-3 -7,-7 0,-4 3,-7 7,-7l109 0c4,0 7,3 7,7 0,4 -3,7 -7,7zm-142 -122c-13,0 -23,-10 -23,-23 0,-14 10,-24 23,-24 14,0 24,10 24,24 0,13 -10,23 -24,23zm0 -33c-5,0 -9,4 -9,10 0,5 4,9 9,9 6,0 10,-4 10,-9 0,-6 -4,-10 -10,-10zm150 192l-185 0c-14,0 -25,-11 -25,-25l0 -188c0,-14 11,-25 25,-25l185 0c13,0 24,11 24,25l0 188c0,14 -11,25 -24,25zm-185 -224c-6,0 -11,5 -11,11l0 188c0,6 5,11 11,11l185 0c5,0 10,-5 10,-11l0 -188c0,-6 -5,-11 -10,-11l-185 0z" id="id_101" style="fill: rgb(181, 182, 198);"></path>
  <path class="fil0" d="M292 126c-4,0 -7,-3 -7,-7l0 -41c0,-4 3,-7 7,-7 4,0 7,3 7,7l0 41c0,4 -3,7 -7,7z" id="id_102" style="fill: rgb(181, 182, 198);"></path>
  <path class="fil0" d="M329 126c-4,0 -7,-3 -7,-7l0 -62c0,-4 3,-7 7,-7 4,0 7,3 7,7l0 62c0,4 -3,7 -7,7z" id="id_103" style="fill: rgb(181, 182, 198);"></path>
  <path class="fil0" d="M329 64c-10,0 -18,-8 -18,-18 0,-11 8,-19 18,-19 10,0 18,8 18,19 0,10 -8,18 -18,18z" id="id_104" style="fill: rgb(181, 182, 198);"></path>
  <path class="fil0" d="M292 85c-10,0 -18,-8 -18,-19 0,-10 8,-18 18,-18 11,0 19,8 19,18 0,11 -8,19 -19,19z" id="id_105" style="fill: rgb(181, 182, 198);"></path>
  <path class="fil0" d="M239 126c-4,0 -7,-3 -7,-7l0 -34 -14 -14c-1,-1 -2,-3 -2,-5l0 -31c0,-4 3,-7 7,-7 4,0 7,3 7,7l0 28 14 14c1,1 2,3 2,5l0 37c0,4 -3,7 -7,7z" id="id_106" style="fill: rgb(181, 182, 198);"></path>
  <path class="fil0" d="M202 126c-4,0 -7,-3 -7,-7l0 -34 -8 -8c-3,-3 -3,-7 0,-10 3,-3 7,-3 10,0l10 10c1,1 2,3 2,5l0 37c0,4 -3,7 -7,7z" id="id_107" style="fill: rgb(181, 182, 198);"></path>
  <path class="fil0" d="M183 84c-10,0 -18,-9 -18,-19 0,-10 8,-18 18,-18 10,0 19,8 19,18 0,10 -9,19 -19,19z" id="id_108" style="fill: rgb(181, 182, 198);"></path>
  <path class="fil0" d="M223 42c-10,0 -19,-9 -19,-19 0,-10 9,-18 19,-18 10,0 18,8 18,18 0,11 -8,19 -18,19z" id="id_109" style="fill: rgb(181, 182, 198);"></path>
  <path class="fil0" d="M452 339c-2,0 -4,-1 -5,-2l-8 -8 -41 0c-4,0 -7,-3 -7,-7 0,-4 3,-7 7,-7l44 0c2,0 4,1 5,2l10 10c3,3 3,7 0,10 -1,1 -3,2 -5,2z" id="id_110" style="fill: rgb(181, 182, 198);"></path>
  <path class="fil0" d="M460 359c-10,0 -18,-8 -18,-19 0,-10 8,-18 18,-18 11,0 19,8 19,18 0,11 -8,19 -19,19z" id="id_111" style="fill: rgb(181, 182, 198);"></path>
  <path class="fil0" d="M475 304c-2,0 -4,-1 -5,-2l-9 -9 -63 0c-4,0 -7,-3 -7,-7 0,-4 3,-7 7,-7l66 0c2,0 4,1 5,2l11 11c3,3 3,7 0,10 -1,1 -3,2 -5,2z" id="id_112" style="fill: rgb(181, 182, 198);"></path>
  <path class="fil0" d="M483 324c-10,0 -18,-8 -18,-19 0,-10 8,-18 18,-18 11,0 19,8 19,18 0,11 -8,19 -19,19z" id="id_113" style="fill: rgb(181, 182, 198);"></path>
  <path class="fil0" d="M435 248l-37 0c-4,0 -7,-3 -7,-7 0,-4 3,-7 7,-7l34 0 14 -14c1,-1 3,-2 5,-2l31 0c4,0 7,3 7,7 0,4 -3,7 -7,7l-28 0 -14 14c-1,1 -3,2 -5,2z" id="id_114" style="fill: rgb(181, 182, 198);"></path>
  <path class="fil0" d="M435 211l-37 0c-4,0 -7,-3 -7,-7 0,-4 3,-7 7,-7l34 0 8 -8c3,-3 7,-3 10,0 3,3 3,7 0,10l-10 10c-1,1 -3,2 -5,2z" id="id_115" style="fill: rgb(181, 182, 198);"></path>
  <path class="fil0" d="M452 204c-11,0 -19,-8 -19,-19 0,-10 8,-18 19,-18 10,0 18,8 18,18 0,11 -8,19 -18,19z" id="id_116" style="fill: rgb(181, 182, 198);"></path>
  <path class="fil0" d="M494 244c-10,0 -19,-9 -19,-19 0,-10 8,-18 19,-18 10,0 18,8 18,18 0,10 -8,19 -18,19z" id="id_117" style="fill: rgb(181, 182, 198);"></path>
  <path class="fil0" d="M235 486c-2,0 -4,-1 -6,-3l-13 -17c-1,-1 -1,-2 -1,-4l0 -55c0,-4 3,-7 7,-7 4,0 7,3 7,7l0 53 12 15c2,3 1,7 -2,9 -1,1 -3,2 -4,2z" id="id_118" style="fill: rgb(181, 182, 198);"></path>
  <path class="fil0" d="M242 507c-10,0 -19,-8 -19,-18 0,-10 9,-19 19,-19 10,0 18,8 18,19 0,10 -8,18 -18,18z" id="id_119" style="fill: rgb(181, 182, 198);"></path>
  <path class="fil0" d="M188 467c-4,0 -7,-3 -7,-7l0 -53c0,-4 3,-7 7,-7 4,0 7,3 7,7l0 53c0,4 -3,7 -7,7z" id="id_120" style="fill: rgb(181, 182, 198);"></path>
  <path class="fil0" d="M188 490c-11,0 -19,-8 -19,-18 0,-11 8,-19 19,-19 10,0 18,8 18,19 0,10 -8,18 -18,18z" id="id_121" style="fill: rgb(181, 182, 198);"></path>
  <path class="fil0" d="M288 455c-4,0 -7,-3 -7,-7l0 -41c0,-4 3,-7 7,-7 4,0 7,3 7,7l0 41c0,4 -3,7 -7,7z" id="id_122" style="fill: rgb(181, 182, 198);"></path>
  <path class="fil0" d="M324 476c-4,0 -7,-3 -7,-7l0 -62c0,-4 3,-7 7,-7 4,0 7,3 7,7l0 62c0,4 -3,7 -7,7z" id="id_123" style="fill: rgb(181, 182, 198);"></path>
  <path class="fil0" d="M324 499c-10,0 -18,-9 -18,-19 0,-10 8,-18 18,-18 11,0 19,8 19,18 0,10 -9,19 -19,19z" id="id_124" style="fill: rgb(181, 182, 198);"></path>
  <path class="fil0" d="M288 478c-11,0 -19,-8 -19,-19 0,-10 8,-18 19,-18 10,0 18,8 18,18 0,11 -8,19 -18,19z" id="id_125" style="fill: rgb(181, 182, 198);"></path>
  <path class="fil0" d="M60 339c-2,0 -4,-1 -5,-2 -3,-3 -3,-7 0,-10l10 -10c1,-1 3,-2 5,-2l44 0c4,0 7,3 7,7 0,4 -3,7 -7,7l-41 0 -8 8c-1,1 -3,2 -5,2z" id="id_126" style="fill: rgb(181, 182, 198);"></path>
  <path class="fil0" d="M52 359c-11,0 -19,-8 -19,-19 0,-10 8,-18 19,-18 10,0 18,8 18,18 0,11 -8,19 -18,19z" id="id_127" style="fill: rgb(181, 182, 198);"></path>
  <path class="fil0" d="M37 304c-2,0 -4,-1 -5,-2 -3,-3 -3,-7 0,-10l11 -11c1,-1 3,-2 5,-2l66 0c4,0 7,3 7,7 0,4 -3,7 -7,7l-63 0 -9 9c-1,1 -3,2 -5,2z" id="id_128" style="fill: rgb(181, 182, 198);"></path>
  <path class="fil0" d="M29 324c-10,0 -19,-9 -19,-19 0,-10 9,-18 19,-18 10,0 18,8 18,18 0,11 -8,19 -18,19z" id="id_129" style="fill: rgb(181, 182, 198);"></path>
  <path class="fil0" d="M114 248l-37 0c-2,0 -4,-1 -5,-2l-14 -14 -28 0c-4,0 -7,-3 -7,-7 0,-4 3,-7 7,-7l31 0c2,0 4,1 5,2l14 14 34 0c4,0 7,3 7,7 0,4 -3,7 -7,7z" id="id_130" style="fill: rgb(181, 182, 198);"></path>
  <path class="fil0" d="M114 211l-37 0c-2,0 -4,-1 -5,-2l-10 -10c-3,-3 -3,-7 0,-10 3,-3 7,-3 10,0l8 8 34 0c4,0 7,3 7,7 0,4 -3,7 -7,7z" id="id_131" style="fill: rgb(181, 182, 198);"></path>
  <path class="fil0" d="M60 204c-10,0 -18,-8 -18,-19 0,-10 8,-18 18,-18 11,0 19,8 19,18 0,11 -8,19 -19,19z" id="id_132" style="fill: rgb(181, 182, 198);"></path>
  <path class="fil0" d="M18 244c-10,0 -18,-9 -18,-19 0,-10 8,-18 18,-18 11,0 19,8 19,18 0,10 -9,19 -19,19z" id="id_133" style="fill: rgb(181, 182, 198);"></path>
 </g>
</svg>