<svg xmlns="http://www.w3.org/2000/svg" xml:space="preserve" width="1.70666in" height="1.70666in" version="1.1" style="shape-rendering:geometricPrecision; text-rendering:geometricPrecision; image-rendering:optimizeQuality; fill-rule:evenodd; clip-rule:evenodd" viewBox="0 0 1707 1707" xmlns:xlink="http://www.w3.org/1999/xlink">
 <defs>
  <style type="text/css">
   
    .fil0 {fill:black}
   
  </style>
 </defs>
 <g id="Layer_x0020_1">
  <metadata id="CorelCorpID_0Corel-Layer"></metadata>
  <g id="_394409472">
   <g>
    <path class="fil0" d="M1576 1499l-1447 0c-71,0 -129,-59 -129,-129l0 -106c0,-13 11,-25 25,-25l1657 0c14,0 25,12 25,25l0 106c-2,70 -60,129 -131,129zm-1527 -210l0 81c0,43 37,80 80,80l1447 0c45,0 81,-36 81,-80l0 -81 -1608 0z" id="id_101" style="fill: rgb(181, 182, 198);"></path>
   </g>
   <g>
    <path class="fil0" d="M1599 1289c-14,0 -25,-11 -25,-25l0 -890c0,-65 -53,-118 -117,-118l-1207 0c-66,0 -118,53 -118,118l0 892c0,14 -11,25 -25,25 -14,0 -25,-11 -25,-25l0 -892c0,-91 75,-166 166,-166l1209 0c92,0 165,75 165,166l0 892c0,12 -11,23 -23,23z" id="id_102" style="fill: rgb(181, 182, 198);"></path>
   </g>
   <g>
    <path class="fil0" d="M1015 1393l-319 0c-14,0 -25,-11 -25,-25l0 -105c0,-14 11,-25 25,-25 14,0 25,11 25,25l0 80 270 0 0 -80c0,-14 11,-25 25,-25 14,0 25,11 25,25l0 105c-1,16 -12,25 -26,25z" id="id_103" style="fill: rgb(181, 182, 198);"></path>
   </g>
   <g>
    <path class="fil0" d="M1360 1393l-73 0c-14,0 -25,-11 -25,-25 0,-13 11,-25 25,-25l73 0c14,0 25,12 25,25 0,14 -12,25 -25,25z" id="id_104" style="fill: rgb(181, 182, 198);"></path>
   </g>
   <g>
    <path class="fil0" d="M1510 1393l-74 0c-14,0 -25,-11 -25,-25 0,-13 11,-25 25,-25l74 0c14,0 25,12 25,25 0,14 -13,25 -25,25z" id="id_105" style="fill: rgb(181, 182, 198);"></path>
   </g>
   <g>
    <path class="fil0" d="M1497 1194l-1288 0c-14,0 -25,-11 -25,-25l0 -791c0,-42 36,-77 79,-77l1177 0c45,0 81,35 81,77l0 791c1,14 -10,25 -24,25zm-1264 -49l1239 0 0 -767c0,-15 -14,-29 -32,-29l-1177 0c-16,0 -30,13 -30,29l0 767z" id="id_106" style="fill: rgb(181, 182, 198);"></path>
   </g>
   <g>
    <path class="fil0" d="M930 571c-14,0 -25,-11 -25,-25l0 -126c0,-14 11,-25 25,-25 14,0 25,11 25,25l0 126c0,14 -11,25 -25,25z" id="id_107" style="fill: rgb(181, 182, 198);"></path>
   </g>
   <g>
    <path class="fil0" d="M819 571l-41 0c-24,0 -42,-19 -42,-43l0 -87c0,-24 20,-43 42,-43l41 0c24,0 42,19 42,43l0 87c0,24 -19,43 -42,43zm-34 -48l27 0 0 -78 -27 0 0 78zm34 -78l0 0 0 0z" id="id_108" style="fill: rgb(181, 182, 198);"></path>
   </g>
   <g>
    <path class="fil0" d="M760 835c-14,0 -25,-11 -25,-25l0 -126c0,-14 11,-25 25,-25 14,0 25,11 25,25l0 126c0,14 -11,25 -25,25z" id="id_109" style="fill: rgb(181, 182, 198);"></path>
   </g>
   <g>
    <path class="fil0" d="M912 835l-41 0c-24,0 -43,-20 -43,-42l0 -89c0,-23 19,-41 43,-41l41 0c24,0 42,19 42,41l0 89c1,24 -18,42 -42,42zm-34 -49l29 0 0 -76 -29 0 0 76zm34 -76l0 0 0 0z" id="id_110" style="fill: rgb(181, 182, 198);"></path>
   </g>
   <g>
    <path class="fil0" d="M930 1101c-14,0 -25,-11 -25,-25l0 -126c0,-14 11,-25 25,-25 14,0 25,11 25,25l0 126c0,14 -11,25 -25,25z" id="id_111" style="fill: rgb(181, 182, 198);"></path>
   </g>
   <g>
    <path class="fil0" d="M819 1099l-41 0c-24,0 -42,-19 -42,-41l0 -89c0,-23 20,-41 42,-41l41 0c24,0 42,19 42,41l0 89c0,22 -19,41 -42,41zm-34 -48l27 0 0 -76 -27 0 0 76zm34 -76l0 0 0 0z" id="id_112" style="fill: rgb(181, 182, 198);"></path>
   </g>
   <g>
    <path class="fil0" d="M1206 571c-14,0 -25,-11 -25,-25l0 -126c0,-14 11,-25 25,-25 14,0 25,11 25,25l0 126c-1,14 -11,25 -25,25z" id="id_113" style="fill: rgb(181, 182, 198);"></path>
   </g>
   <g>
    <path class="fil0" d="M1094 571l-42 0c-23,0 -41,-19 -41,-43l0 -87c0,-24 19,-43 41,-43l42 0c23,0 41,19 41,43l0 87c2,24 -18,43 -41,43zm-35 -48l28 0 0 -78 -28 0 0 78zm35 -78l0 0 0 0z" id="id_114" style="fill: rgb(181, 182, 198);"></path>
   </g>
   <g>
    <path class="fil0" d="M1036 835c-14,0 -25,-11 -25,-25l0 -126c0,-14 11,-25 25,-25 14,0 25,11 25,25l0 126c-2,14 -13,25 -25,25z" id="id_115" style="fill: rgb(181, 182, 198);"></path>
   </g>
   <g>
    <path class="fil0" d="M1187 835l-40 0c-24,0 -43,-18 -43,-42l0 -89c0,-23 19,-41 43,-41l40 0c23,0 43,19 43,41l0 89c0,24 -20,42 -43,42zm-35 -49l29 0 0 -76 -29 0 0 76zm35 -76l0 0 0 0z" id="id_116" style="fill: rgb(181, 182, 198);"></path>
   </g>
   <g>
    <path class="fil0" d="M1206 1101c-14,0 -25,-11 -25,-25l0 -126c0,-14 11,-25 25,-25 14,0 25,11 25,25l0 126c-1,14 -11,25 -25,25z" id="id_117" style="fill: rgb(181, 182, 198);"></path>
   </g>
   <g>
    <path class="fil0" d="M1094 1099l-42 0c-23,0 -41,-19 -41,-41l0 -89c0,-23 19,-41 41,-41l42 0c23,0 41,19 41,41l0 89c2,22 -18,41 -41,41zm-35 -48l28 0 0 -76 -28 0 0 76zm35 -76l0 0 0 0z" id="id_118" style="fill: rgb(181, 182, 198);"></path>
   </g>
   <g>
    <path class="fil0" d="M484 571c-14,0 -25,-11 -25,-25l0 -126c0,-14 11,-25 25,-25 14,0 25,11 25,25l0 126c0,14 -11,25 -25,25z" id="id_119" style="fill: rgb(181, 182, 198);"></path>
   </g>
   <g>
    <path class="fil0" d="M638 571l-42 0c-23,0 -41,-19 -41,-43l0 -87c0,-24 19,-43 41,-43l42 0c23,0 41,19 41,43l0 87c0,24 -19,43 -41,43zm-35 -48l28 0 0 -78 -28 0 0 78zm35 -78l0 0 0 0z" id="id_120" style="fill: rgb(181, 182, 198);"></path>
   </g>
   <g>
    <path class="fil0" d="M656 835c-14,0 -25,-11 -25,-25l0 -126c0,-14 11,-25 25,-25 14,0 25,11 25,25l0 126c-2,14 -13,25 -25,25z" id="id_121" style="fill: rgb(181, 182, 198);"></path>
   </g>
   <g>
    <path class="fil0" d="M543 835l-41 0c-24,0 -42,-20 -42,-42l0 -89c0,-23 20,-41 42,-41l41 0c24,0 43,19 43,41l0 89c0,24 -19,42 -43,42zm-34 -49l29 0 0 -76 -29 0 0 76zm34 -76l0 0 0 0z" id="id_122" style="fill: rgb(181, 182, 198);"></path>
   </g>
   <g>
    <path class="fil0" d="M484 1101c-14,0 -25,-11 -25,-25l0 -126c0,-14 11,-25 25,-25 14,0 25,11 25,25l0 126c0,14 -11,25 -25,25z" id="id_123" style="fill: rgb(181, 182, 198);"></path>
   </g>
   <g>
    <path class="fil0" d="M638 1099l-42 0c-23,0 -41,-19 -41,-41l0 -89c0,-23 19,-41 41,-41l42 0c23,0 41,19 41,41l0 89c0,22 -19,41 -41,41zm-35 -48l28 0 0 -76 -28 0 0 76zm35 -76l0 0 0 0z" id="id_124" style="fill: rgb(181, 182, 198);"></path>
   </g>
  </g>
 </g>
</svg>