<svg xmlns="http://www.w3.org/2000/svg" xml:space="preserve" width="1.70666in" height="1.70666in" version="1.1" style="shape-rendering:geometricPrecision; text-rendering:geometricPrecision; image-rendering:optimizeQuality; fill-rule:evenodd; clip-rule:evenodd" viewBox="0 0 1707 1707" xmlns:xlink="http://www.w3.org/1999/xlink">
 <defs>
  <style type="text/css">
   
    .fil0 {fill:black}
   
  </style>
 </defs>
 <g id="Layer_x0020_1">
  <metadata id="CorelCorpID_0Corel-Layer"></metadata>
  <g id="_340870016">
   <g>
    <g>
     <path class="fil0" d="M1285 1308l-863 0c-14,0 -25,-11 -25,-25l0 -861c0,-14 11,-25 25,-25l863 0c14,0 25,11 25,25l0 863c-2,12 -11,23 -25,23zm-838 -48l813 0 0 -814 -814 0 0 814 1 0z" id="id_101" style="fill: rgb(181, 182, 198);"></path>
    </g>
    <g>
     <g>
      <path class="fil0" d="M601 446c-14,0 -25,-12 -25,-25l0 -165 -104 -104 -46 0c-4,9 -10,18 -18,25 -11,9 -25,13 -40,13 -36,0 -64,-27 -64,-63 0,-36 28,-64 64,-64 26,0 48,15 58,39l56 0c7,0 12,2 16,7l118 117c4,5 7,12 7,17l0 176c2,15 -8,27 -22,27zm-232 -333c-8,0 -15,5 -15,15 0,10 6,15 15,15 4,0 7,-1 9,-3 4,-2 7,-8 7,-12 -2,-8 -7,-15 -16,-15z" id="id_102" style="fill: rgb(181, 182, 198);"></path>
     </g>
     <g>
      <path class="fil0" d="M1095 446c-14,0 -25,-12 -25,-25l0 -175c0,-7 2,-13 7,-17l118 -118c4,-4 11,-7 16,-7l56 0c9,-22 32,-38 58,-38 36,0 64,27 64,63 0,36 -29,64 -64,64 -14,0 -26,-4 -38,-12 -8,-7 -15,-17 -20,-27l-46 0 -104 104 0 165c1,11 -10,23 -22,23zm231 -333c-8,0 -15,7 -15,15 0,4 3,10 6,12 2,2 5,3 9,3 9,0 16,-7 16,-15 0,-8 -7,-15 -16,-15z" id="id_103" style="fill: rgb(181, 182, 198);"></path>
     </g>
     <g>
      <path class="fil0" d="M942 446c-14,0 -25,-12 -25,-25l0 -175c0,-7 3,-13 7,-17l68 -68 0 -39c-24,-9 -39,-31 -39,-58 0,-36 28,-64 64,-64 36,0 64,30 64,64 0,27 -17,49 -39,58l0 49c0,7 -3,12 -7,17l-68 68 0 165c0,13 -11,25 -25,25zm75 -397c-8,0 -15,7 -15,15 0,7 4,13 11,14 1,0 1,0 3,0 0,0 0,0 1,0 8,0 15,-7 15,-15 0,-7 -7,-14 -15,-14z" id="id_104" style="fill: rgb(181, 182, 198);"></path>
     </g>
     <g>
      <path class="fil0" d="M752 446c-14,0 -25,-12 -25,-25l0 -165 -68 -68c-4,-5 -7,-11 -7,-17l0 -49c-23,-9 -40,-31 -40,-58 0,-36 29,-64 64,-64 34,0 64,30 64,64 0,25 -16,49 -39,58l0 39 68 68c4,4 7,11 7,17l0 176c1,12 -10,24 -24,24zm-75 -397c-8,0 -15,7 -15,15 0,9 7,15 15,15l2 0c0,0 1,0 1,0 7,-1 12,-8 12,-13 0,-10 -6,-17 -15,-17z" id="id_105" style="fill: rgb(181, 182, 198);"></path>
     </g>
    </g>
    <g>
     <g>
      <path class="fil0" d="M1461 624l-176 0c-14,0 -25,-11 -25,-24 0,-14 11,-25 25,-25l166 0 104 -104 0 -46c-10,-4 -19,-11 -26,-20 -9,-9 -13,-23 -13,-38 0,-37 28,-64 64,-64 36,0 64,27 64,64 0,26 -15,48 -39,58l0 55c0,7 -3,13 -7,17l-118 118c-5,7 -12,9 -19,9zm118 -270c-9,0 -16,6 -16,15 0,4 2,7 3,9 3,2 6,7 13,7 8,0 15,-6 15,-16 0,-9 -7,-15 -15,-15z" id="id_106" style="fill: rgb(181, 182, 198);"></path>
     </g>
     <g>
      <path class="fil0" d="M1579 1389c-35,0 -64,-29 -64,-64 0,-14 4,-26 12,-38 7,-9 17,-16 27,-20l0 -46 -104 -104 -167 0c-14,0 -25,-11 -25,-25 0,-14 11,-25 25,-25l176 0c7,0 13,3 17,7l118 118c4,4 7,11 7,16l0 56c22,10 39,32 39,58 2,39 -27,67 -61,67zm0 -78c-7,0 -10,4 -13,6 -1,2 -3,5 -3,9 0,9 7,16 16,16 8,0 15,-7 15,-16 0,-8 -6,-15 -15,-15z" id="id_107" style="fill: rgb(181, 182, 198);"></path>
     </g>
     <g>
      <path class="fil0" d="M1642 1079c-26,0 -48,-15 -58,-38l-48 0c-7,0 -13,-3 -17,-7l-68 -68 -166 0c-14,0 -25,-11 -25,-25 0,-14 11,-25 25,-25l176 0c7,0 12,3 16,7l68 68 39 0c10,-24 32,-39 58,-39 37,0 64,28 64,64 0,36 -27,63 -64,63zm-13 -62l0 0c0,8 5,15 15,15 8,0 15,-5 15,-15 0,-10 -5,-15 -15,-15 -7,0 -13,4 -14,11 -1,1 -1,1 -1,4 0,-1 0,-1 0,0z" id="id_108" style="fill: rgb(181, 182, 198);"></path>
     </g>
     <g>
      <path class="fil0" d="M1461 776l-176 0c-14,0 -25,-11 -25,-25 0,-14 11,-25 25,-25l166 0 68 -68c4,-4 11,-7 17,-7l48 0c10,-24 32,-40 58,-40 35,0 64,29 64,63 0,35 -27,64 -64,64 -26,0 -48,-15 -58,-39l-39 0 -68 68c-2,7 -9,9 -16,9zm168 -97c0,0 0,1 0,1 1,6 5,12 13,12 10,0 16,-6 16,-15 0,-8 -7,-15 -16,-15 -8,0 -13,7 -13,17l0 0z" id="id_109" style="fill: rgb(181, 182, 198);"></path>
     </g>
    </g>
    <g>
     <g>
      <path class="fil0" d="M1339 1642c-27,0 -50,-16 -60,-38l-55 0c-7,0 -13,-3 -17,-7l-117 -118c-4,-4 -6,-11 -6,-17l0 -177c0,-14 11,-25 25,-25 13,0 24,11 24,25l0 166 103 104 46 0c4,-10 11,-19 19,-26 13,-9 25,-13 41,-13 34,0 63,28 63,64 0,36 -32,62 -66,62zm0 -79c-4,0 -7,2 -11,5 -2,1 -5,4 -5,11 0,8 7,15 16,15 7,0 15,-6 15,-15 -1,-9 -7,-16 -15,-16z" id="id_110" style="fill: rgb(181, 182, 198);"></path>
     </g>
     <g>
      <path class="fil0" d="M382 1642c-35,0 -64,-27 -64,-63 0,-36 28,-64 64,-64 14,0 28,4 39,12 9,7 16,16 20,27l46 0 103 -104 0 -167c0,-14 11,-25 25,-25 14,0 25,11 25,25l0 176c0,7 -3,13 -7,17l-117 118c-4,4 -11,7 -16,7l-56 0c-14,25 -36,41 -62,41zm0 -79c-9,0 -15,7 -15,16 0,9 6,15 15,15 8,0 15,-7 15,-15 0,-5 -1,-9 -5,-11 0,0 -2,-2 -2,-2 -1,-1 -5,-3 -8,-3z" id="id_111" style="fill: rgb(181, 182, 198);"></path>
     </g>
     <g>
      <path class="fil0" d="M691 1706c-36,0 -64,-27 -64,-64 0,-26 17,-48 40,-58l0 -48c0,-7 3,-13 7,-17l67 -68 0 -166c0,-14 11,-25 25,-25 14,0 25,11 25,25l0 176c0,7 -3,12 -7,16l-67 68 0 39c24,10 39,32 39,58 -3,35 -30,64 -65,64zm0 -79c-10,0 -15,7 -15,15 0,9 7,16 15,16 7,0 15,-6 15,-16 0,-6 -5,-12 -11,-13 -3,0 -4,0 -4,-2z" id="id_112" style="fill: rgb(181, 182, 198);"></path>
     </g>
     <g>
      <path class="fil0" d="M1029 1706c-36,0 -63,-27 -63,-64 0,-26 15,-48 39,-58l0 -39 -68 -68c-5,-4 -7,-11 -7,-16l0 -176c0,-14 11,-25 25,-25 13,0 25,11 25,25l0 166 67 68c5,4 7,11 7,17l0 48c24,10 39,32 39,58 0,37 -27,64 -64,64zm0 -79c0,0 -1,0 -1,0 -5,2 -12,6 -12,14 0,8 5,15 15,15 8,0 15,-5 15,-15 0,-10 -7,-14 -17,-14 0,0 0,0 0,0z" id="id_113" style="fill: rgb(181, 182, 198);"></path>
     </g>
    </g>
    <g>
     <g>
      <path class="fil0" d="M128 1401c-35,0 -64,-28 -64,-64 0,-26 17,-50 39,-59l0 -56c0,-7 3,-12 7,-16l118 -117c4,-4 11,-7 17,-7l176 0c14,0 25,11 25,25 0,14 -11,25 -25,25l-165 0 -104 103 0 45c9,5 18,10 25,19 0,0 1,1 1,1 8,11 12,25 12,39 2,34 -26,62 -62,62zm0 -79c-8,0 -15,7 -15,15 0,9 7,16 15,16 8,0 15,-7 15,-16 0,-4 -1,-7 -3,-9 -4,-3 -8,-6 -12,-6z" id="id_114" style="fill: rgb(181, 182, 198);"></path>
     </g>
     <g>
      <path class="fil0" d="M422 637l-176 0c-7,0 -13,-3 -17,-7l-118 -116c-4,-5 -7,-12 -7,-17l0 -56c-22,-9 -38,-33 -38,-59 0,-35 27,-64 63,-64 35,0 64,28 64,64 0,14 -4,28 -12,39 -7,9 -16,16 -27,20l0 46 104 103 165 0c14,0 25,11 25,25 0,14 -12,22 -26,22zm-294 -270c-10,0 -15,6 -15,15 0,8 7,15 15,15 4,0 8,-3 11,-5 0,0 1,-2 1,-2 2,-1 3,-4 3,-8 0,-9 -5,-15 -15,-15z" id="id_115" style="fill: rgb(181, 182, 198);"></path>
     </g>
     <g>
      <path class="fil0" d="M422 788l-176 0c-7,0 -13,-3 -17,-7l-68 -66 -39 0c-9,23 -31,38 -58,38 -36,0 -64,-27 -64,-63 0,-36 30,-64 64,-64 27,0 49,17 58,40l49 0c7,0 12,3 17,7l68 67 166 0c14,0 25,11 25,25 0,13 -11,23 -25,23zm-358 -114c-8,0 -15,7 -15,16 0,8 7,15 15,15 7,0 13,-6 14,-11 0,-2 0,-2 0,-3 1,-10 -5,-17 -14,-17z" id="id_116" style="fill: rgb(181, 182, 198);"></path>
     </g>
     <g>
      <path class="fil0" d="M64 1093c-36,0 -64,-27 -64,-64 0,-36 30,-63 64,-63 25,0 49,15 58,38l39 0 68 -67c4,-5 11,-7 17,-7l176 0c14,0 25,11 25,25 0,13 -11,23 -25,23l-165 0 -68 68c-4,4 -11,7 -17,7l-48 0c-10,24 -33,40 -60,40zm0 -79c-8,0 -15,7 -15,15 0,9 7,16 15,16 7,0 15,-6 15,-16 0,0 0,-1 0,-1 0,0 0,-1 0,-1 -1,-7 -8,-13 -15,-13z" id="id_117" style="fill: rgb(181, 182, 198);"></path>
     </g>
    </g>
    <g>
     <path class="fil0" d="M1171 1194l-634 0c-14,0 -25,-11 -25,-24l0 -634c0,-14 11,-25 25,-25l634 0c14,0 25,11 25,25l0 634c-2,13 -11,24 -25,24zm-610 -48l585 0 0 -585 -585 0 0 585z" id="id_118" style="fill: rgb(181, 182, 198);"></path>
    </g>
    <g>
     <path class="fil0" d="M1045 1061c-14,0 -25,-11 -25,-25l0 -240c0,-13 11,-24 25,-24 14,0 25,11 25,24l0 242c-2,12 -13,23 -25,23z" id="id_119" style="fill: rgb(51, 53, 97);"></path>
    </g>
   </g>
  </g>
 </g>
</svg>