<svg id="Layer_1" data-name="Layer 1" xmlns="http://www.w3.org/2000/svg" viewBox="0 0 64 64"><title>industrial-factory-machine-engine-industry-gear</title><path d="M2.651,35.828l2.917,1.678a27.266,27.266,0,0,0,.789,2.949l-1.684,2.9a1,1,0,0,0-.047.912,30.115,30.115,0,0,0,3.068,5.305,1,1,0,0,0,.81.413h0l3.36-.01a27.024,27.024,0,0,0,2.154,2.154l-.01,3.36a1,1,0,0,0,.413.813,29.982,29.982,0,0,0,5.305,3.068,1.009,1.009,0,0,0,.912-.047l2.9-1.685a26.857,26.857,0,0,0,2.949.789l1.678,2.918a1,1,0,0,0,.766.5,30.518,30.518,0,0,0,6.124,0,1,1,0,0,0,.766-.5l1.678-2.918a27.122,27.122,0,0,0,2.948-.788l2.9,1.684a1.009,1.009,0,0,0,.912.047,30.1,30.1,0,0,0,5.306-3.068,1,1,0,0,0,.413-.813l-.01-3.36a27.179,27.179,0,0,0,2.154-2.153l3.36.009h0a1,1,0,0,0,.81-.413,30.008,30.008,0,0,0,3.068-5.3,1,1,0,0,0-.047-.912l-1.684-2.9a27.266,27.266,0,0,0,.789-2.949l2.917-1.678a1,1,0,0,0,.5-.766,30.518,30.518,0,0,0,0-6.124,1,1,0,0,0-.5-.766l-2.917-1.678a27.266,27.266,0,0,0-.789-2.949l1.684-2.9a1,1,0,0,0,.047-.912,30.115,30.115,0,0,0-3.068-5.3,1,1,0,0,0-.81-.413h0l-3.36.01a27.024,27.024,0,0,0-2.154-2.154l.01-3.36a1,1,0,0,0-.413-.813,29.982,29.982,0,0,0-5.3-3.068,1,1,0,0,0-.912.047l-2.9,1.684a26.868,26.868,0,0,0-2.949-.788L35.828,2.651a1,1,0,0,0-.766-.5,30.567,30.567,0,0,0-6.124,0,1,1,0,0,0-.766.5L26.494,5.569a27,27,0,0,0-2.948.788l-2.9-1.684a1,1,0,0,0-.912-.047,30.006,30.006,0,0,0-5.306,3.068,1,1,0,0,0-.413.813l.01,3.36a27.179,27.179,0,0,0-2.154,2.153l-3.36-.009a.883.883,0,0,0-.813.413,30.008,30.008,0,0,0-3.068,5.305,1,1,0,0,0,.047.912l1.684,2.9a27.266,27.266,0,0,0-.789,2.949L2.651,28.172a1,1,0,0,0-.5.766,30.518,30.518,0,0,0,0,6.124A1,1,0,0,0,2.651,35.828ZM4.1,29.647,6.959,28a1,1,0,0,0,.484-.68A24.879,24.879,0,0,1,8.4,23.766a1,1,0,0,0-.08-.831L6.663,20.086a28.1,28.1,0,0,1,2.356-4.074l3.3.009h0a1,1,0,0,0,.757-.346,25.325,25.325,0,0,1,2.6-2.6,1,1,0,0,0,.346-.76l-.009-3.3a28.1,28.1,0,0,1,4.074-2.356l2.849,1.652a1,1,0,0,0,.831.08,24.8,24.8,0,0,1,3.555-.951A1,1,0,0,0,28,6.96L29.647,4.1a28.442,28.442,0,0,1,4.706,0L36,6.96a1,1,0,0,0,.682.484,24.706,24.706,0,0,1,3.554.951,1,1,0,0,0,.831-.08l2.849-1.652a28.15,28.15,0,0,1,4.074,2.356l-.009,3.3a1,1,0,0,0,.346.76,25.325,25.325,0,0,1,2.6,2.6,1,1,0,0,0,.757.347h0l3.295-.01a27.934,27.934,0,0,1,2.357,4.074l-1.652,2.849a1,1,0,0,0-.08.831,24.879,24.879,0,0,1,.952,3.555,1,1,0,0,0,.484.68L59.9,29.647c.065.781.1,1.57.1,2.353s-.033,1.572-.1,2.353L57.041,36a1,1,0,0,0-.484.68,24.879,24.879,0,0,1-.952,3.555,1,1,0,0,0,.08.831l1.652,2.849a28.1,28.1,0,0,1-2.356,4.074l-3.3-.009h0a1,1,0,0,0-.757.346,25.225,25.225,0,0,1-2.6,2.6,1,1,0,0,0-.346.76l.009,3.3a28.164,28.164,0,0,1-4.074,2.356l-2.849-1.652a1.006,1.006,0,0,0-.831-.08,24.735,24.735,0,0,1-3.555.951A1,1,0,0,0,36,57.04L34.353,59.9a28.442,28.442,0,0,1-4.706,0L28,57.04a1,1,0,0,0-.681-.484,24.653,24.653,0,0,1-3.554-.951,1,1,0,0,0-.832.079l-2.849,1.653a28.15,28.15,0,0,1-4.074-2.356l.009-3.3a1,1,0,0,0-.346-.76,25.325,25.325,0,0,1-2.6-2.6,1,1,0,0,0-.757-.347h0l-3.295.01a27.934,27.934,0,0,1-2.357-4.074l1.652-2.849a1,1,0,0,0,.08-.831,24.879,24.879,0,0,1-.952-3.555A1,1,0,0,0,6.959,36L4.1,34.353C4.033,33.572,4,32.783,4,32S4.033,30.428,4.1,29.647Z" id="id_113" style="fill: rgb(181, 182, 198);"></path><path d="M32,54A22,22,0,1,0,10,32,22.025,22.025,0,0,0,32,54Zm0-42A20,20,0,1,1,12,32,20.023,20.023,0,0,1,32,12Z" id="id_114" style="fill: rgb(181, 182, 198);"></path><path d="M20,44H44a1,1,0,0,0,1-1V28a1,1,0,0,0-1.614-.79L36,32.956V28a1,1,0,0,0-1.614-.79L27,32.956V21a1,1,0,0,0-1-1H20a1,1,0,0,0-1,1V43A1,1,0,0,0,20,44Zm1-22h4V35a1,1,0,0,0,1.614.79L34,30.044V35a1,1,0,0,0,1.614.79L43,30.044V42H21Z" id="id_115" style="fill: rgb(181, 182, 198);"></path><path d="M25.571,17.676c.441-.481.638-.676,1.1-.676s.656.2,1.1.676a3.156,3.156,0,0,0,5.14,0C33.347,17.2,33.543,17,34,17V15a3.271,3.271,0,0,0-2.568,1.324c-.441.481-.637.676-1.095.676s-.656-.2-1.1-.676a3.159,3.159,0,0,0-5.143,0c-.441.481-.638.676-1.1.676v2A3.275,3.275,0,0,0,25.571,17.676Z" id="id_116" style="fill: rgb(181, 182, 198);"></path></svg>